<?xml version="1.0" standalone="no"?>
<!DOCTYPE svg PUBLIC "-//W3C//DTD SVG 20010904//EN"
 "http://www.w3.org/TR/2001/REC-SVG-20010904/DTD/svg10.dtd">
<svg version="1.0" xmlns="http://www.w3.org/2000/svg"
 width="500.000000pt" height="500.000000pt" viewBox="0 0 500.000000 500.000000"
 preserveAspectRatio="xMidYMid meet">
<metadata>
Created by potrace 1.11, written by Peter Selinger 2001-2013
</metadata>
<g transform="translate(0.000000,500.000000) scale(0.100000,-0.100000)"
fill="#000000" stroke="none">
<path d="M2390 4699 c-66 -7 -163 -23 -225 -36 -11 -2 -31 -6 -45 -9 -14 -3
-40 -9 -58 -15 -18 -6 -39 -12 -45 -13 -140 -29 -431 -162 -607 -277 -161
-105 -344 -267 -475 -419 -238 -276 -432 -686 -490 -1035 -3 -16 -7 -40 -9
-53 -28 -137 -28 -544 0 -696 46 -255 114 -460 221 -666 299 -577 815 -983
1448 -1139 44 -11 98 -22 120 -26 22 -3 54 -8 70 -11 91 -16 190 -22 365 -19
107 2 204 5 215 8 11 3 43 8 70 11 302 40 627 165 900 346 248 164 525 450
650 669 141 250 75 527 -162 684 -96 62 -187 91 -293 91 -174 0 -286 -65 -450
-260 -14 -16 -58 -68 -97 -116 -221 -264 -547 -411 -891 -401 -369 10 -730
199 -934 488 -87 123 -161 288 -188 420 -7 33 -14 64 -17 68 -8 13 -13 101
-14 224 -1 176 36 333 118 497 60 121 120 204 227 312 168 167 376 279 611
328 70 15 359 17 415 3 14 -4 39 -9 55 -13 128 -25 317 -108 432 -191 105 -75
152 -122 263 -259 142 -175 221 -241 333 -276 157 -49 365 3 482 121 217 216
205 537 -32 833 -288 362 -679 625 -1107 747 -151 43 -181 49 -371 76 -105 14
-377 17 -485 4z"/>
</g>
</svg>
